<?xml version="1.0" encoding="UTF-8"?>
<svg id="svg3751" xmlns="http://www.w3.org/2000/svg" xmlns:xlink="http://www.w3.org/1999/xlink" xmlns:svg="http://www.w3.org/2000/svg" xmlns:sodipodi="http://sodipodi.sourceforge.net/DTD/sodipodi-0.dtd" xmlns:rdf="http://www.w3.org/1999/02/22-rdf-syntax-ns#" xmlns:inkscape="http://www.inkscape.org/namespaces/inkscape" xmlns:dc="http://purl.org/dc/elements/1.1/" xmlns:cc="http://creativecommons.org/ns#" version="1.1" viewBox="0 0 802.22 255.68">
  <!-- Generator: Adobe Illustrator 29.6.0, SVG Export Plug-In . SVG Version: 2.1.1 Build 207)  -->
  <defs>
    <style>
      .st0 {
        fill: none;
      }

      .st1 {
        clip-path: url(#clippath-1);
      }

      .st2 {
        clip-path: url(#clippath-2);
      }

      .st3 {
        fill: #bfbfbf;
      }

      .st4 {
        clip-path: url(#clippath);
      }
    </style>
    <clipPath id="clippath">
      <rect class="st0" x="-369.23" y="-98.97" width="1700.79" height="2381.1"/>
    </clipPath>
    <clipPath id="clippath-1">
      <rect class="st0" x="-369.23" y="-98.97" width="1700.79" height="2381.1"/>
    </clipPath>
    <clipPath id="clippath-2">
      <rect class="st0" x="-369.23" y="-98.97" width="1700.79" height="2381.1"/>
    </clipPath>
  </defs>
  <g id="layer1" inkscape:groupmode="layer" inkscape:label="Calque 1">
    <g id="g66">
      <g class="st4">
        <g id="g68">
          <g id="g74">
            <path id="path76" class="st3" d="M401.11,7.23c1.21,0,2.2-.98,2.2-2.2s-.98-2.2-2.2-2.2-2.2.98-2.2,2.2.98,2.2,2.2,2.2" inkscape:connector-curvature="0"/>
          </g>
        </g>
      </g>
    </g>
    <g id="g78">
      <path id="path80" class="st3" d="M401.11,72.71l-55.36,23.05h110.73l-55.36-23.05Z" inkscape:connector-curvature="0"/>
    </g>
    <g id="g82">
      <g class="st1">
        <g id="g84">
          <g id="g90">
            <path id="path92" class="st3" d="M413.55,51.42v-9.72l-3.44-3.35v-11.88l1.69-1.68c-.23-.26-5.9-6.54-7.81-15.1h-5.82c-1.84,8.21-7.12,14.32-7.76,15.04l-.02.03,1.72,1.71v11.88l-3.44,3.35v9.72c-14.52,4.83-25.28,17.86-26.79,33.6l37.8-15.74,1.42-.6,1.43.6,37.8,15.74c-1.5-15.74-12.27-28.77-26.79-33.6M404.8,30.37c0-.64.22-1.53,1.36-1.53s1.36.91,1.36,1.53v9.78c-.9-.14-1.81-.26-2.73-.34v-9.44ZM399.27,29.74c0-.89.31-2.14,1.9-2.14s1.9,1.26,1.9,2.14v9.95c-.63-.03-1.26-.05-1.9-.05s-1.27.02-1.9.05v-9.95ZM394.73,30.37c0-.64.22-1.53,1.36-1.53s1.36.91,1.36,1.53v9.45c-.92.08-1.83.2-2.73.35v-9.8Z" inkscape:connector-curvature="0"/>
          </g>
        </g>
      </g>
    </g>
    <path id="path94" class="st3" d="M184.03,252.84h434.17v-2.78H184.03v2.78Z" inkscape:connector-curvature="0"/>
    <g id="g96">
      <g class="st2">
        <g id="g98">
          <g id="g104">
            <path id="path106" class="st3" d="M184.1,122.18c0-.37.33-.7.7-.7h1.39c.41,0,.7.33.7.7v15.32c0,4.19,2.61,7.46,6.91,7.46s6.98-3.2,6.98-7.38v-15.4c0-.37.29-.7.7-.7h1.4c.36,0,.7.33.7.7v15.54c0,5.59-3.97,9.85-9.77,9.85s-9.7-4.26-9.7-9.85v-15.54Z" inkscape:connector-curvature="0"/>
          </g>
          <g id="g108">
            <path id="path110" class="st3" d="M217.14,121.77c0-.37.33-.66.7-.66h.92l16.57,20.65h.07v-19.58c0-.37.29-.7.7-.7h1.28c.37,0,.7.33.7.7v24.73c0,.36-.33.66-.7.66h-.66l-16.86-21.05h-.04v19.98c0,.37-.3.7-.7.7h-1.28c-.37,0-.7-.33-.7-.7v-24.72Z" inkscape:connector-curvature="0"/>
          </g>
          <g id="g112">
            <path id="path114" class="st3" d="M251.98,122.18c0-.37.33-.7.7-.7h1.47c.37,0,.7.33.7.7v24.32c0,.37-.33.7-.7.7h-1.47c-.37,0-.7-.33-.7-.7v-24.32Z" inkscape:connector-curvature="0"/>
          </g>
          <g id="g116">
            <path id="path118" class="st3" d="M265.24,122.43c-.22-.48.07-.96.62-.96h1.47c.33,0,.55.22.62.4l9.15,20.58h.15l9.15-20.58c.07-.18.33-.4.62-.4h1.47c.55,0,.85.48.62.96l-11.17,24.72c-.11.22-.33.41-.62.41h-.37c-.26,0-.52-.18-.62-.41l-11.1-24.72Z" inkscape:connector-curvature="0"/>
          </g>
          <g id="g120">
            <path id="path122" class="st3" d="M299.53,122.18c0-.37.29-.7.7-.7h14.48c.4,0,.7.33.7.7v1.06c0,.37-.29.7-.7.7h-12.35v8.96h10.55c.36,0,.7.33.7.7v1.06c0,.4-.33.7-.7.7h-10.55v9.37h12.35c.4,0,.7.33.7.7v1.06c0,.37-.29.7-.7.7h-14.48c-.41,0-.7-.33-.7-.7v-24.32Z" inkscape:connector-curvature="0"/>
          </g>
          <g id="g124">
            <path id="path126" class="st3" d="M337.72,134.71c2.83,0,5.29-2.35,5.29-5.36,0-2.79-2.46-5.18-5.29-5.18h-7.13v10.54h7.13ZM327.68,122.18c0-.37.29-.7.7-.7h9.52c4.41,0,8.01,3.46,8.01,7.83,0,3.38-2.24,6.21-5.44,7.49l5.04,9.33c.26.48,0,1.07-.62,1.07h-1.88c-.33,0-.51-.18-.58-.33l-4.89-9.74h-7.02v9.37c0,.37-.33.7-.7.7h-1.43c-.41,0-.7-.33-.7-.7v-24.32Z" inkscape:connector-curvature="0"/>
          </g>
          <g id="g128">
            <path id="path130" class="st3" d="M356.72,143.34c.18-.22.37-.48.55-.7.37-.48.77-.77,1.28-.33.26.22,2.94,2.8,6.21,2.8,2.98,0,4.92-1.88,4.92-4.04,0-2.53-2.2-4.04-6.43-5.8-4.04-1.76-6.47-3.42-6.47-7.6,0-2.5,1.98-6.54,7.83-6.54,3.6,0,6.28,1.87,6.28,1.87.22.11.66.55.22,1.25-.15.22-.3.48-.44.7-.33.51-.7.66-1.28.33-.26-.15-2.57-1.69-4.81-1.69-3.9,0-5.07,2.5-5.07,4.04,0,2.46,1.87,3.89,4.96,5.18,4.96,2.02,8.16,3.9,8.16,8.16,0,3.82-3.64,6.61-7.94,6.61s-7.27-2.54-7.75-2.98c-.29-.26-.66-.55-.22-1.25" inkscape:connector-curvature="0"/>
          </g>
          <g id="g132">
            <path id="path134" class="st3" d="M384.35,122.18c0-.37.33-.7.7-.7h1.47c.37,0,.7.33.7.7v24.32c0,.37-.33.7-.7.7h-1.47c-.37,0-.7-.33-.7-.7v-24.32Z" inkscape:connector-curvature="0"/>
          </g>
          <g id="g136">
            <path id="path138" class="st3" d="M404.75,123.94h-6.39c-.4,0-.7-.33-.7-.7v-1.06c0-.37.3-.7.7-.7h15.58c.41,0,.7.33.7.7v1.06c0,.37-.29.7-.7.7h-6.39v22.56c0,.37-.33.7-.7.7h-1.39c-.37,0-.7-.33-.7-.7v-22.56Z" inkscape:connector-curvature="0"/>
          </g>
          <g id="g140">
            <path id="path142" class="st3" d="M429.66,117.62c-.15-.29,0-.59.22-.7l5.51-3.09c.22-.15.77-.22.96.11l.66,1.32c.15.3.07.66-.22.77l-5.92,2.46c-.51.22-.7.22-.84-.08l-.37-.81ZM425.07,122.18c0-.37.29-.7.7-.7h14.47c.4,0,.7.33.7.7v1.06c0,.37-.3.7-.7.7h-12.34v8.96h10.54c.37,0,.7.33.7.7v1.06c0,.4-.33.7-.7.7h-10.54v9.37h12.34c.4,0,.7.33.7.7v1.06c0,.37-.3.7-.7.7h-14.47c-.41,0-.7-.33-.7-.7,0,0,0-24.32,0-24.32Z" inkscape:connector-curvature="0"/>
          </g>
          <g id="g144">
            <path id="path146" class="st3" d="M476.41,135.15c3.01,0,5.58-2.46,5.58-5.62,0-2.98-2.57-5.25-5.58-5.25h-5.84v10.88h5.84ZM467.78,122.18c0-.37.29-.7.7-.7h8.12c4.52,0,8.23,3.68,8.23,8.12s-3.71,8.27-8.2,8.27h-6.06v8.63c0,.37-.33.7-.7.7h-1.4c-.4,0-.7-.33-.7-.7,0,0,0-24.32,0-24.32Z" inkscape:connector-curvature="0"/>
          </g>
          <g id="g148">
            <path id="path150" class="st3" d="M508.9,138.45c-1.8-4-3.56-8.04-5.36-12.05h-.3l-5.36,12.05h11.02ZM491.44,146.24l11.17-24.72c.11-.22.3-.41.62-.41h.37c.33,0,.52.18.62.41l11.1,24.72c.22.48-.07.96-.62.96h-1.47c-.33,0-.55-.22-.63-.4l-2.72-6.06h-13.04l-2.68,6.06c-.08.18-.3.4-.63.4h-1.47c-.55,0-.85-.48-.62-.96" inkscape:connector-curvature="0"/>
          </g>
          <g id="g152">
            <path id="path154" class="st3" d="M535.76,134.71c2.83,0,5.29-2.35,5.29-5.36,0-2.79-2.46-5.18-5.29-5.18h-7.13v10.54h7.13ZM525.73,122.18c0-.37.29-.7.7-.7h9.52c4.41,0,8.01,3.46,8.01,7.83,0,3.38-2.24,6.21-5.44,7.49l5.04,9.33c.26.48,0,1.07-.62,1.07h-1.88c-.33,0-.51-.18-.58-.33l-4.89-9.74h-7.02v9.37c0,.37-.33.7-.7.7h-1.43c-.41,0-.7-.33-.7-.7v-24.32Z" inkscape:connector-curvature="0"/>
          </g>
          <g id="g156">
            <path id="path158" class="st3" d="M556.42,122.18c0-.37.33-.7.7-.7h1.47c.37,0,.7.33.7.7v24.32c0,.37-.33.7-.7.7h-1.47c-.37,0-.7-.33-.7-.7v-24.32Z" inkscape:connector-curvature="0"/>
          </g>
          <g id="g160">
            <path id="path162" class="st3" d="M571.52,143.34c.18-.22.37-.48.55-.7.37-.48.77-.77,1.28-.33.26.22,2.94,2.8,6.21,2.8,2.98,0,4.92-1.88,4.92-4.04,0-2.53-2.21-4.04-6.43-5.8-4.04-1.76-6.47-3.42-6.47-7.6,0-2.5,1.99-6.54,7.83-6.54,3.6,0,6.28,1.87,6.28,1.87.22.11.66.55.22,1.25-.15.22-.3.48-.44.7-.33.51-.7.66-1.28.33-.26-.15-2.57-1.69-4.81-1.69-3.9,0-5.07,2.5-5.07,4.04,0,2.46,1.87,3.89,4.96,5.18,4.96,2.02,8.16,3.9,8.16,8.16,0,3.82-3.64,6.61-7.94,6.61s-7.27-2.54-7.75-2.98c-.29-.26-.66-.55-.22-1.25" inkscape:connector-curvature="0"/>
          </g>
          <g id="g164">
            <path id="path166" class="st3" d="M615.44,126.77l-2.65,2.06c-.29.22-.58.26-.84-.04l-.7-.77c-.26-.29-.11-.62.07-.81l5.14-5h.99c.37,0,.66.33.66.7v23.59c0,.37-.3.7-.66.7h-1.32c-.4,0-.7-.33-.7-.7v-19.73Z" inkscape:connector-curvature="0"/>
          </g>
          <g id="g168">
            <path id="path170" class="st3" d="M20.87,220.32c-.54-.08-1.07-.16-1.54-.23-.17-.21-.67-1.04-.67-3.53v-35.98c0-3.83.76-4.01,2.22-4.01h1.32c7.48,0,11.77,4.02,11.77,11.04s-4.18,11.73-11.2,11.73h-1.05v.58c0,.07,0,1.74.66,2.82l.17.28h.55c12.61,0,20.76-6.08,20.76-15.5,0-12.73-13.99-14.63-22.33-14.63H2.83v3.3l.45.11c1.54.36,3.72.69,5.17.86.16.2.64.99.64,3.43v35.98c0,2.55-.52,3.36-.65,3.53-.48.08-1.01.15-1.56.23-1.27.19-2.58.38-3.6.62l-.45.1v3.3h22.09v-3.3l-.45-.1c-1.02-.24-2.33-.43-3.6-.62" inkscape:connector-curvature="0"/>
          </g>
          <g id="g172">
            <path id="path174" class="st3" d="M138.76,172.88h-16.33v3.42h1.25c3.01,0,6.08.5,6.08,4.27v28.98l-30.02-36.46-.17-.21h-11.9v3.6h.58c1.16,0,5.1,3.37,6.5,5.81v34.36c0,3.77-2.51,4.28-4.97,4.28h-1.12s0,3.42,0,3.42h17.23v-3.42h-1.25c-3.01,0-6.08-.5-6.08-4.27v-30.02l30.93,37.5.18.21h3.91v-43.76c0-3.77,2.51-4.28,4.97-4.28h.22s0-3.42,0-3.42Z" inkscape:connector-curvature="0"/>
          </g>
          <g id="g176">
            <path id="path178" class="st3" d="M182.82,173.46v-.57h-41.16l-.02.56c0,.05-.17,5.12-.98,9.27l-.1.5.48.17c.06.02,1.63.56,2.72.46l.46-.04.06-.46c.3-2.04,1.61-6.78,7.33-6.78h5.82v39.99c0,2.55-.52,3.36-.65,3.53-.48.08-1.01.15-1.56.23-1.27.19-2.58.38-3.6.62l-.45.1v3.3h22.09v-3.3l-.45-.1c-1.02-.24-2.33-.43-3.6-.62-.55-.08-1.07-.16-1.55-.23-.17-.21-.66-1.04-.66-3.53v-39.99h5.99c5.52,0,6.85,4.74,7.16,6.79l.08.45.46.04s1.23.09,2.72-.47l.46-.17-.08-.48c0-.05-.9-5.29-.98-9.28" inkscape:connector-curvature="0"/>
          </g>
          <g id="g180">
            <path id="path182" class="st3" d="M220.87,176.19l.45.1c1.54.36,3.72.69,5.17.86.16.2.64.99.64,3.43v14.94h-25.36v-14.94c0-2.52.51-3.28.62-3.42,1.45-.17,3.64-.5,5.19-.86l.45-.1v-3.3h-22.09v3.3l.45.1c1.54.36,3.72.69,5.17.86.16.2.64.99.64,3.43v35.98c0,2.55-.52,3.36-.65,3.52-.48.08-1.01.16-1.56.24-1.27.18-2.58.38-3.6.61l-.45.11v3.3h22.09v-3.3l-.45-.11c-1.02-.24-2.33-.43-3.6-.61-.54-.08-1.07-.16-1.54-.23-.17-.21-.67-1.04-.67-3.53v-17.36h25.36v17.36c0,2.55-.52,3.36-.65,3.52-.48.08-1.01.16-1.56.24-1.27.18-2.58.38-3.6.61l-.45.11v3.3h22.09v-3.3l-.45-.11c-1.01-.24-2.33-.43-3.6-.61-.54-.08-1.07-.16-1.54-.23-.17-.21-.67-1.04-.67-3.53v-35.98c0-2.52.51-3.28.62-3.42,1.45-.17,3.64-.5,5.19-.86l.45-.1v-3.3h-22.09v3.3Z" inkscape:connector-curvature="0"/>
          </g>
          <g id="g184">
            <path id="path186" class="st3" d="M283.93,214.25l-.49-.03-.11.48c-.17.73-.82,2.83-1.75,3.81-1.47,1.56-3.5,2.16-7.24,2.16h-7.74c-1.78,0-2.96-.29-2.96-4.1v-16.5h9.55c2.03,0,2.53,1.09,2.79,6.12l.03.6,3.44-.26v-16.78l-3.44-.26-.03.6c-.26,5.35-.68,6.29-2.79,6.29h-9.55v-19.82h8.31c2.98,0,5.41.94,6.52,2.53.92,1.28,1.47,3.42,1.48,3.45l.11.4.41.04s1.23.08,2.72-.47l.47-.18-.1-.49s-.9-4.42-.98-8.39v-.57h-34.78v3.3l.45.11c1.54.36,3.7.69,5.15.86.16.2.55.88.66,2.74v37.42c-.11,1.89-.54,2.6-.67,2.78-.47.08-1,.15-1.54.23-1.27.19-2.58.38-3.6.61l-.45.11v3.3h38.14v-.57c.09-3.72.98-8.35.99-8.4l.09-.46-.44-.18c-.89-.38-2.49-.47-2.67-.48" inkscape:connector-curvature="0"/>
          </g>
          <g id="g188">
            <path id="path190" class="st3" d="M263.29,170.97c4.76-2.12,10.73-6.31,13.22-8.22l.23-.18v-1.78l-3.07-4.16-12.55,12.28,1.75,2.25.42-.19Z" inkscape:connector-curvature="0"/>
          </g>
          <g id="g192">
            <path id="path194" class="st3" d="M314.29,172.02c-14.61,0-25.63,11.55-25.63,26.86s10.54,26.16,25.63,26.16,25.46-10.76,25.46-26.16-10.94-26.86-25.46-26.86M314.29,221.18c-4.05,0-7.37-1.29-9.87-3.83-3.66-3.74-5.52-10.12-5.36-18.46.1-5.4,1.48-23.01,15.23-23.01,11.23,0,15.23,11.88,15.23,23,0,20.14-10.65,22.31-15.23,22.31" inkscape:connector-curvature="0"/>
          </g>
          <g id="g196">
            <path id="path198" class="st3" d="M376.23,176.31h1.25c3.01,0,6.08.5,6.08,4.27v28.98l-30.02-36.46-.18-.21h-11.9v3.6h.58c1.16,0,5.11,3.37,6.5,5.81v34.36c0,3.76-2.51,4.27-4.97,4.27h-1.12s0,3.42,0,3.42h17.23v-3.42h-1.25c-3.01,0-6.08-.5-6.08-4.27v-30.02l30.92,37.5.18.21h3.91v-43.76c0-3.77,2.51-4.28,4.97-4.28h1.12s0-3.42,0-3.42h-17.23v3.42Z" inkscape:connector-curvature="0"/>
          </g>
          <g id="g200">
            <path id="path202" class="st3" d="M437.72,194.43c-5.18-3.29-10.08-6.4-10.08-11.95,0-4.45,3.85-6.78,7.65-6.78,4.41,0,7.48,2.99,8.4,8.19l.07.39.38.08c.74.16,2.37.01,2.42,0l.49-.06.36-9.62-.31-.17c-3.32-1.84-7.86-2.5-11-2.5-8.28,0-16.65,4.42-16.65,14.29,0,7.91,5.94,11.74,11.7,15.45,5.13,3.3,9.97,6.43,9.97,12.21s-4.25,7.56-8.23,7.56c-6.02,0-10.28-3.61-11.37-9.66l-.08-.44-.44-.04c-.94-.09-2.32,0-2.32,0l-.57.04.03.57s.17,3.64.66,9.9l.02.31.26.15c4.23,2.48,9.84,2.86,12.82,2.86,8.71,0,17.97-5.25,17.97-14.98,0-8.08-6.19-12-12.17-15.8" inkscape:connector-curvature="0"/>
          </g>
          <g id="g204">
            <path id="path206" class="st3" d="M478.79,172.02c-14.61,0-25.63,11.55-25.63,26.86s10.54,26.16,25.63,26.16,25.46-10.76,25.46-26.16-10.94-26.86-25.46-26.86M478.79,221.18c-4.05,0-7.37-1.29-9.87-3.83-3.66-3.74-5.52-10.12-5.36-18.46.1-5.4,1.47-23.01,15.23-23.01,11.23,0,15.23,11.88,15.23,23,0,20.14-10.65,22.31-15.23,22.31" inkscape:connector-curvature="0"/>
          </g>
          <g id="g208">
            <path id="path210" class="st3" d="M624.18,172.02c-14.61,0-25.63,11.55-25.63,26.86s10.54,26.16,25.63,26.16,25.46-10.76,25.46-26.16-10.95-26.86-25.46-26.86M624.18,221.18c-4.05,0-7.37-1.29-9.86-3.83-3.67-3.74-5.52-10.12-5.37-18.46.1-5.4,1.48-23.01,15.23-23.01,11.23,0,15.23,11.88,15.23,23,0,20.14-10.65,22.31-15.23,22.31" inkscape:connector-curvature="0"/>
          </g>
          <g id="g212">
            <path id="path214" class="st3" d="M686.11,176.31h1.25c3.01,0,6.08.5,6.08,4.27v28.98l-30.02-36.46-.18-.21h-11.9v3.6h.58c1.16,0,5.1,3.37,6.5,5.81v34.36c0,3.76-2.51,4.27-4.97,4.27h-1.13s0,3.42,0,3.42h17.24v-3.42h-1.25c-3.01,0-6.08-.5-6.08-4.27v-30.02l30.93,37.5.18.21h3.91v-43.76c0-3.77,2.51-4.28,4.97-4.28h1.12s0-3.42,0-3.42h-17.23v3.42Z" inkscape:connector-curvature="0"/>
          </g>
          <g id="g216">
            <path id="path218" class="st3" d="M798.95,214.72c-.89-.38-2.49-.47-2.67-.48l-.48-.02-.12.47s-.64,2.64-1.75,3.81c-1.48,1.56-3.5,2.16-7.24,2.16h-7.74c-1.79,0-2.96-.28-2.96-4.1v-16.5h9.55c2.03,0,2.53,1.09,2.8,6.12l.03.6,3.44-.26v-16.78l-3.44-.26-.03.6c-.26,5.35-.68,6.29-2.8,6.29h-9.55v-19.81h8.31c2.98,0,5.42.94,6.53,2.53.91,1.28,1.47,3.42,1.47,3.45l.11.4.42.04s1.23.08,2.72-.47l.47-.17-.1-.49s-.9-4.42-.98-8.39v-.57h-34.78v3.3l.45.11c1.54.36,3.7.69,5.15.86.16.2.55.89.66,2.74v37.42c-.11,1.89-.54,2.6-.68,2.78-.47.08-1,.15-1.54.23-1.27.19-2.58.38-3.6.62l-.45.1v3.3h38.14v-.57c.09-3.72.98-8.35.99-8.4l.09-.46-.44-.18Z" inkscape:connector-curvature="0"/>
          </g>
          <g id="g220">
            <path id="path222" class="st3" d="M82.13,220.43c-.45-.06-.84-.11-1.13-.16-.15-.14-.65-.73-1.34-2.6l-16.59-45.18-.14-.38h-.41c-1.21,0-4.2.51-5.28,1.23l-.16.1-16.41,43.97c-1.38,3.62-3.84,3.62-5.81,3.62h-.58v3.43h16.86v-3.43h-.58c-2.28,0-5.12,0-5.92-1.15-.32-.46-.31-1.15.03-2.05l4.65-12.48h15.61l4.57,12.48c.33.89.34,1.54.02,1.99-.57.81-2.31,1.22-5.17,1.22h-.58v3.43h21.36v-3.54c-1.02-.22-2.09-.36-2.98-.48M50.65,201.64l6.5-17.62,6.43,17.62s-12.93,0-12.93,0Z" inkscape:connector-curvature="0"/>
          </g>
          <g id="g224">
            <path id="path226" class="st3" d="M550.63,221.02c-.23,0-1.2-.23-1.69-.53-2.38-1.34-4.56-4.83-6.87-8.52-2.32-3.7-4.71-7.5-7.54-9.5,6.9-1.34,14.22-5.88,14.22-14.92,0-12.76-14.02-14.66-22.38-14.66h-18.74v3.31l.45.1c1.55.36,3.73.69,5.18.86.16.2.64.99.64,3.44v36.06c0,2.56-.52,3.37-.65,3.53-.48.08-1.01.16-1.56.24-1.27.19-2.59.38-3.61.62l-.45.1v3.31h22.14v-3.31l-.45-.1c-1.02-.24-2.33-.43-3.61-.62-.54-.08-1.07-.16-1.54-.23-.17-.21-.67-1.04-.67-3.54v-13.58h.82c2.86,0,5.16,4.88,7.38,9.6,2.73,5.79,5.55,11.78,10.2,11.78h8.98v-3.43s-.23,0-.23,0ZM527.59,199.38h-4.12v-18.79c0-3.84.76-4.02,2.22-4.02h1.32c7.5,0,11.8,4.03,11.8,11.06s-4.2,11.75-11.22,11.75" inkscape:connector-curvature="0"/>
          </g>
          <g id="g228">
            <path id="path230" class="st3" d="M583.45,196.82c4.28-1.7,8.12-5.85,8.12-10.66,0-8.56-6.51-13.27-18.33-13.27h-20.4v3.31l.45.1c1.55.36,3.73.69,5.18.86.16.2.64.99.64,3.44v36.06c0,2.56-.52,3.37-.65,3.53-.48.08-1.01.16-1.56.24-1.16.17-2.34.34-3.31.55v3.48h23.53c13.58,0,18.42-7.66,18.42-14.84s-5.67-11.5-12.08-12.8M568.71,180.59c0-3.87.12-4.02,1.07-4.02h2.23c8.96,0,9.65,7.34,9.65,9.58,0,6.53-3.52,9.84-10.48,9.84h-2.47v-15.4ZM574.89,220.76h-3.3c-1.87,0-2.88-.66-2.88-4.11v-16.97h3.79c8.54,0,12.87,3.64,12.87,10.8,0,6.43-3.92,10.28-10.48,10.28" inkscape:connector-curvature="0"/>
          </g>
          <g id="g232">
            <path id="path234" class="st3" d="M740.31,172.88v3.43h1.25c3.01,0,6.1.5,6.1,4.28v29.04l-30.08-36.54-.18-.21h-10.82v3.74c1.54.65,4.76,3.53,6,5.69v34.43c0,3.77-2.52,4.28-4.98,4.28h-1.13v3.43h17.27v-3.43h-1.25c-3.02,0-6.1-.51-6.1-4.28v-30.09l30.99,37.58.18.21h3.92v-43.86c0-3.78,2.52-4.28,4.98-4.28h1.13s0-3.43,0-3.43h-17.27Z" inkscape:connector-curvature="0"/>
          </g>
        </g>
      </g>
    </g>
  </g>
</svg>